<mxfile host="app.diagrams.net" modified="2023-10-15T09:11:43.285Z" agent="Mozilla/5.0 (Windows NT 10.0; Win64; x64) AppleWebKit/537.36 (KHTML, like Gecko) Chrome/118.0.0.0 Safari/537.36" version="22.0.4" etag="2gbRy11w43Xa7ZT-w2Q0" type="github">
  <diagram name="第 1 页" id="uHj-V4ptDd7D3md28fQi">
    <mxGraphModel>
      <root>
        <mxCell id="0" />
        <mxCell id="1" parent="0" />
      </root>
    </mxGraphModel>
  </diagram>
</mxfile>
